<?xml version="1.0" encoding="UTF-8"?>
<!-- Created with Inkscape (http://www.inkscape.org/) -->
<svg width="2046.2" height="764" inkscape:version="0.92.2 (5c3e80d, 2017-08-06)" sodipodi:docname="eUprava.svg" version="1.1" viewBox="0 0 2046.2 764" xml:space="preserve" xmlns="http://www.w3.org/2000/svg" xmlns:cc="http://creativecommons.org/ns#" xmlns:dc="http://purl.org/dc/elements/1.1/" xmlns:inkscape="http://www.inkscape.org/namespaces/inkscape" xmlns:rdf="http://www.w3.org/1999/02/22-rdf-syntax-ns#" xmlns:sodipodi="http://sodipodi.sourceforge.net/DTD/sodipodi-0.dtd"><metadata><rdf:RDF><cc:Work rdf:about=""><dc:format>image/svg+xml</dc:format><dc:type rdf:resource="http://purl.org/dc/dcmitype/StillImage"/><dc:title/></cc:Work></rdf:RDF></metadata><sodipodi:namedview bordercolor="#666666" borderopacity="1" fit-margin-bottom="0" fit-margin-left="0" fit-margin-right="0" fit-margin-top="0" gridtolerance="10" guidetolerance="10" inkscape:current-layer="g10" inkscape:cx="1709.0576" inkscape:cy="-480.9681" inkscape:pageopacity="0" inkscape:pageshadow="2" inkscape:window-height="1017" inkscape:window-maximized="1" inkscape:window-width="1920" inkscape:window-x="-8" inkscape:window-y="-8" inkscape:zoom="0.16763557" objecttolerance="10" pagecolor="#ffffff" showborder="false" showgrid="false"/><g transform="matrix(1.3333 0 0 -1.3333 348.84 456.72)" inkscape:groupmode="layer" inkscape:label="eUprava+"><g transform="matrix(3.1221 0 0 3.1221 -261.6 -230.31)"><g fill-rule="evenodd"><path d="m151.55 99.498s0.8186 13.1-15.557 13.1c-16.375 0-14.738-13.1-14.738-13.1z" fill="#d23641" inkscape:connector-curvature="0"/><path d="m194.12 83.942c-4.0941-29.476-29.476-51.583-58.952-51.583-30.295 0-55.676 22.107-58.952 51.583h22.107v-0.8187s1.6375-26.201 34.388-30.295c23.744-2.4562 35.207 11.463 35.207 11.463l-12.282 12.281s-28.657-18.013-36.026 7.3689z" fill="#024d9e" inkscape:connector-curvature="0"/><path d="m135.17 151.08c29.476 0 54.858-22.925 58.952-51.583h-22.107c0 3.2752-1.6376 30.294-38.482 30.294-18.832 0.8189-35.207-15.557-35.207-30.294h-22.107c3.2752 28.657 28.657 51.583 58.952 51.583" fill="#d23641" inkscape:connector-curvature="0"/><path d="m194.12 99.498v-1.6375-1.6373-1.6376-1.6376-1.6376-0.8186-1.6376-1.6373-1.6375-1.6376h-74.508c7.3689-25.382 36.026-7.369 36.026-7.369l12.281-12.281s-11.463-13.919-35.207-11.463c-32.751 4.0941-34.388 30.295-34.388 30.295v0.8187h-22.107c0 0.8186-0.8187 0.8186-0.8187 1.6376v1.6375 1.6373 1.6376 0.8186 1.6376 1.6376 1.6376 1.6373c0 0.8189 0.8187 0.8189 0.8187 1.6375h22.107c0 14.738 16.376 31.113 35.207 30.294 36.844 0 38.482-27.019 38.482-30.294h22.107zm-42.576 0s0.8186 13.1-15.557 13.1c-16.375 0-14.738-13.1-14.738-13.1z" fill="#f6fcfa" inkscape:connector-curvature="0"/></g><path d="m149.91 106.05-6.55-6.5503h-22.107s-1.6373 13.1 14.738 13.1c8.1876 0 12.282-3.2751 13.919-6.55z" fill="#fff" fill-opacity=".251" fill-rule="evenodd" inkscape:connector-curvature="0"/><path d="m128.62 83.942-6.55-6.55c-0.8189 1.6373-1.6376 4.0938-2.4562 6.55h9.0065zm-20.469-20.469-13.919-14.738c-9.8252 9.0066-16.376 21.288-18.013 35.207h22.107v-0.8187s0.8189-10.644 9.8254-19.651z" fill="#fff" fill-opacity=".251" fill-rule="evenodd" inkscape:connector-curvature="0"/><path d="m176.93 133.07-13.1-13.919c-5.7313 6.5503-14.738 10.644-30.294 10.644-18.832 0.8187-35.207-15.557-35.207-30.294h-22.107c3.2752 28.657 28.657 51.583 58.952 51.583 16.376 0 31.113-6.5503 41.757-18.013z" fill="#fff" fill-opacity=".251" fill-rule="evenodd" inkscape:connector-curvature="0"/><path d="m163.83 119.15-13.919-13.1c-1.6376 3.2752-5.7314 6.5503-13.919 6.5503-16.375 0-14.738-13.1-14.738-13.1h22.107l-14.738-15.557h-9.0065c0.8189-2.4562 1.6375-4.9127 2.4562-6.55l-13.919-13.919c-9.0065 9.0066-9.8254 19.651-9.8254 19.651v0.8187h-22.107c0 0.8186-0.8186 0.8186-0.8186 1.6376v1.6375 1.6373 1.6376 0.8187 1.6375 1.6376 1.6376 1.6373c0 0.8189 0.8186 0.8189 0.8186 1.6375h22.107c0 14.738 16.375 31.113 35.207 30.294 15.556 0 24.563-4.0938 30.294-10.644z" fill="#fff" fill-opacity=".251" fill-rule="evenodd" inkscape:connector-curvature="0"/><path d="m237.68 86.037c0.0528 0.474 0.1579 1.2107 0.1579 2.1583 0 4.6845-2.2107 12.001-10.527 12.001-7.4216 0-11.948-6.0533-11.948-13.738 0-7.6847 4.6845-12.843 12.527-12.843 4.053 0 6.8426 0.8422 8.4745 1.5792l-0.7897 3.316c-1.7368-0.737-3.7372-1.3159-7.0532-1.3159-4.6318 0-8.6323 2.5793-8.7375 8.8427zm-17.844 3.3163c0.3682 3.2108 2.4211 7.5268 7.1059 7.5268 5.2109 0 6.474-4.5794 6.4213-7.5268z" fill="#b34248" inkscape:connector-curvature="0"/><g fill="#1a3360"><path d="m239.84 109.62 11.79-23.897c0.4212-0.8422 0.5264-1.3685 0.1582-2.158-2.9639-4.1954-4.0334-6.6633-8.6324-5.9479l-0.4737-3.7369c0.5789-0.2107 1.421-0.3161 2.579-0.3161 3.1584 0 5.7373 1.474 8.0535 4.369 2.4738 3.316 4.6845 8.7375 6.6319 13.475l7.4217 18.212h-4.8424l-5.5267-14.949c-0.8949-2.5265-1.5792-4.5793-2.2108-6.4216h-0.1054c-0.8422 2.1056-1.6844 4.1585-2.579 6.2638l-7.0534 15.107z" inkscape:connector-curvature="0" sodipodi:nodetypes="cccccscccccccccc"/><path d="m271.16 109.62v-35.477h4.5793v31.634h16.475v-31.634h4.5794v35.477z" inkscape:connector-curvature="0"/><path d="m304.79 74.141h4.5794v14.212c1.0528-0.2634 2.3159-0.3158 3.6845-0.3158 4.4742 0 8.4217 1.3159 10.843 3.8951 1.7895 1.8422 2.7371 4.3688 2.7371 7.5796 0 3.158-1.1579 5.7373-3.1056 7.4216-2.1053 1.8947-5.4216 2.9475-9.9482 2.9475-3.6845 0-6.5795-0.3158-8.7903-0.6843zm4.5794 31.74c0.7895 0.2106 2.3159 0.3685 4.3163 0.3685 5.0531 0 8.369-2.2634 8.369-6.948 0-4.8951-3.3687-7.5795-8.8954-7.5795-1.5264 0-2.7898 0.1051-3.7899 0.3685z" inkscape:connector-curvature="0"/><path d="m346.69 85.3 3.7896-11.159h4.8952l-12.106 35.477h-5.5268l-12.054-35.477h4.7372l3.6845 11.159zm-11.633 3.5793 3.4739 10.264c0.6843 2.1581 1.2634 4.3161 1.7895 6.4217h0.1055c0.5263-2.0529 1.0527-4.1585 1.8422-6.4744l3.4738-10.211z" inkscape:connector-curvature="0"/><path d="m360.59 74.246c1.5264-0.2104 3.9478-0.421 7.1059-0.421 5.79 0 9.7903 1.0528 12.264 3.316 1.7898 1.7371 3.0004 4.053 3.0004 7.1059 0 5.2636-3.9478 8.0532-7.3165 8.8954v0.1054c3.7372 1.3686 6.0004 4.3688 6.0004 7.7902 0 2.7896-1.1052 4.8952-2.9474 6.2634-2.2108 1.7898-5.1583 2.5793-9.7376 2.5793-3.2108 0-6.3692-0.3158-8.3693-0.7367zm4.5794 31.792c0.737 0.1579 1.9476 0.3158 4.0529 0.3158 4.6321 0 7.7902-1.6316 7.7902-5.79 0-3.4212-2.8423-5.9477-7.685-5.9477h-4.1581zm0-14.896h3.7899c5.0003 0 9.1584-2.0002 9.1584-6.8426 0-5.1585-4.3687-6.8953-9.106-6.8953-1.6316 0-2.9474 0.0525-3.8423 0.2104z" inkscape:connector-curvature="0"/><path d="m407.43 85.3 3.7896-11.159h4.8952l-12.106 35.477h-5.5267l-12.054-35.477h4.7373l3.6844 11.159zm-11.632 3.5793 3.4738 10.264c0.6843 2.1581 1.2634 4.3161 1.7895 6.4217h0.1055c0.5264-2.0529 1.0528-4.1585 1.8422-6.4744l3.4739-10.211z" inkscape:connector-curvature="0"/></g></g><rect class="fil0" transform="scale(1,-1)" x="-261.63" y="-342.54" width="1534.6" height="573" clip-rule="evenodd" fill="none" image-rendering="optimizeQuality" shape-rendering="geometricPrecision" stroke-width="2.8366"/></g></svg>
